<svg xmlns="http://www.w3.org/2000/svg" width="32" height="32" viewBox="0 0 32 32"><defs><style>.a{fill:#fbfbfc;stroke:#e7e7ee;stroke-miterlimit:10;}.b{stroke:none;}.c{fill:none;}</style></defs><g transform="translate(-443 -330)"><g class="a" transform="translate(443 330)"><circle class="b" cx="16" cy="16" r="16"/><circle class="c" cx="16" cy="16" r="15.5"/></g><path d="M7.191,9.673H8.732v1.541H7.191ZM17.976,5.821V16.606a1.545,1.545,0,0,1-1.541,1.541H5.651A1.54,1.54,0,0,1,4.11,16.606L4.118,5.821A1.534,1.534,0,0,1,5.651,4.281h.77V2.74H7.962V4.281h6.163V2.74h1.541V4.281h.77A1.545,1.545,0,0,1,17.976,5.821ZM5.651,7.362H16.435V5.821H5.651Zm10.784,9.244V8.9H5.651v7.7Zm-3.081-5.392h1.541V9.673H13.354Zm-3.081,0h1.541V9.673H10.273Z" transform="translate(447.89 335.26)"/></g></svg>