<svg xmlns="http://www.w3.org/2000/svg" xmlns:xlink="http://www.w3.org/1999/xlink" width="154" height="154" viewBox="0 0 154 154"><defs><style>.a{fill:url(#a);}.b,.d{fill:#fff;}.c{fill:#177848;}.d{opacity:0.2;}.e{opacity:0.1;}.f{fill:url(#b);}.g{opacity:0.05;fill:url(#c);}.h{fill:url(#d);}.i{fill:#2a7d54;}</style><linearGradient id="a" x1="1" x2="0.078" y2="0.973" gradientUnits="objectBoundingBox"><stop offset="0" stop-color="#f6f6f6"/><stop offset="1" stop-color="#f3f3f3"/></linearGradient><linearGradient id="b" x1="-0.45" y1="0.25" x2="0.935" y2="1.02" gradientUnits="objectBoundingBox"><stop offset="0" stop-opacity="0.102"/><stop offset="1" stop-opacity="0"/></linearGradient><linearGradient id="c" x1="-24.085" y1="18.286" x2="-24.068" y2="18.286" gradientUnits="objectBoundingBox"><stop offset="0" stop-color="#fff"/><stop offset="1"/></linearGradient><linearGradient id="d" x1="-0.065" y1="0.248" x2="1.044" y2="0.765" gradientUnits="objectBoundingBox"><stop offset="0" stop-color="#fff" stop-opacity="0.2"/><stop offset="1" stop-color="#fff" stop-opacity="0"/></linearGradient></defs><g transform="translate(-794 -222)"><g transform="translate(794 222)"><circle class="a" cx="77" cy="77" r="77"/><g transform="translate(31.542 29.687)"><rect class="b" width="43.564" height="64.399" transform="translate(45.458 13.259)"/><path class="c" d="M52.776,71.187H14.894a1.894,1.894,0,1,1,0-3.788H50.882V6.788H14.894a1.894,1.894,0,1,1,0-3.788H52.776A1.893,1.893,0,0,1,54.67,4.894v64.4A1.893,1.893,0,0,1,52.776,71.187Z" transform="translate(36.246 8.364)"/><path class="c" d="M53.034,0,0,9.882V81.034l53.034,9.882Z"/><path class="d" d="M0,9.882v.947L53.034.947V0Z"/><rect class="c" width="14" height="7" transform="translate(50.458 19.313)"/><rect class="c" width="16" height="7" transform="translate(67.458 19.313)"/><rect class="c" width="14" height="8" transform="translate(50.458 30.313)"/><rect class="c" width="16" height="8" transform="translate(67.458 30.313)"/><rect class="c" width="14" height="9" transform="translate(50.458 41.313)"/><rect class="c" width="16" height="9" transform="translate(67.458 41.313)"/><rect class="c" width="14" height="7" transform="translate(50.458 53.313)"/><rect class="c" width="16" height="7" transform="translate(67.458 53.313)"/><rect class="c" width="14" height="6" transform="translate(50.458 65.313)"/><rect class="c" width="16" height="6" transform="translate(67.458 65.313)"/><path class="e" d="M0,22.088,53.034,31.97v-.947L0,21.141Z" transform="translate(0 58.945)"/><path class="f" d="M49.987,71.187a1.893,1.893,0,0,0,1.894-1.894V40.882L14,3V71.187Z" transform="translate(39.034 8.364)"/><path class="b" d="M17.9,24.076l8.7-15.667-.11-.061-6.617.473-5.226,9.407L9.825,9.539l-6.25.446L11.4,24.076,3.576,38.167l6.25.446,4.827-8.689,5.226,9.407L26.5,39.8l.11-.061Z" transform="translate(9.97 23.276)"/><path class="g" d="M53.034,0,0,9.882V81.034l53.034,9.882Z"/><path class="h" d="M89.022,11.364H53.034V0L0,9.882V81.034l53.034,9.882V79.551H89.022a1.893,1.893,0,0,0,1.894-1.894v-64.4A1.893,1.893,0,0,0,89.022,11.364Z"/></g></g><g transform="translate(887.699 300.855)"><circle class="b" cx="19.5" cy="19.5" r="19.5" transform="translate(0.301 0.145)"/><path class="i" d="M22.333,27.523h6.1V34.7h6.934V27.523h6.1L31.9,17.958Z" transform="translate(-12.283 -6.845)"/></g></g></svg>