<svg xmlns="http://www.w3.org/2000/svg" width="31.293" height="31.293" viewBox="0 0 31.293 31.293"><defs><style>.a{fill:#a67bd4;}.b{fill:#fed198;}.c{fill:#f0b97d;}.d{fill:#f60;}.e{fill:#fff;}</style></defs><g transform="translate(0 -0.002)"><path class="a" d="M15.646,31.295A15.646,15.646,0,1,0,0,15.648,15.677,15.677,0,0,0,15.646,31.295Z"/><path d="M135.629,57.311c-1.3-3.292-4.046-6.271-.6-12.272,1.42-2.471,3.59-4.1,5.831-3.549,2.241-.552,4.411,1.078,5.831,3.549,3.449,6,.708,8.98-.6,12.272l-5.234.013-5.235-.013Z" transform="translate(-125.208 -38.851)"/><path class="b" d="M96.185,279.717c-.164.264-.572,2.511-1.024,4.215a15.644,15.644,0,0,0,19.66,0c-.452-1.7-.86-3.951-1.024-4.215-2.514-4.059-6.388-2.287-6.652-6.931a4.888,4.888,0,0,1-2.2.939,4.363,4.363,0,0,1-2.112-.88C102.572,277.485,98.7,275.662,96.185,279.717Z" transform="translate(-89.345 -256.112)"/><path class="c" d="M224.043,273.444c-.031-.2-.054-.421-.067-.656a4.888,4.888,0,0,1-2.2.939,4.363,4.363,0,0,1-2.112-.88c-.013.239-.037.46-.069.666l.073.058v0a2.7,2.7,0,0,0,4.215,0v0c.054-.041.106-.084.158-.127Z" transform="translate(-206.174 -256.114)"/><path class="b" d="M185.232,132.744a2.971,2.971,0,0,0,4.215,0c1.391-.811,2.532-3.2,2.275-5.793-.211-2.122-2.507.99-4.106-3.39-2.263,4.741-4.413,1.937-4.658,3.733a6.3,6.3,0,0,0,2.274,5.449Z" transform="translate(-171.737 -116.008)"/><path class="d" d="M100.74,326.374c-1.37.732-3.875.754-4.829,2.287-.166.267-.583,3.537-1.041,5.464a15.644,15.644,0,0,0,19.7,0c-.459-1.927-.925-5.171-1.041-5.464-.633-1.6-3.564-1.663-4.935-2.4-2.132,7.734-5.309,8.262-7.849.114h0Z" transform="translate(-89.072 -306.318)"/><g transform="translate(9.532 19.287)"><path class="e" d="M159,315.535c-.089,2.406.32,5.815,3.02,6.687-2.542.106-4.191-3.556-6.07-4.516l3.05-2.171h0Z" transform="translate(-155.951 -315.535)"/><path class="e" d="M258.445,315.535c.093,2.406-.336,5.815-3.171,6.687,2.669.106,4.4-3.556,6.374-4.516l-3.2-2.171Z" transform="translate(-249.203 -315.535)"/></g></g></svg>