<svg xmlns="http://www.w3.org/2000/svg" width="53.155" height="53" viewBox="0 0 53.155 53"><defs><style>.a{fill:#f60;}.b{fill:#fed9bf;}.c{fill:#fff;}</style></defs><g transform="translate(-0.223 0.197)"><rect class="a" width="53" height="53" transform="translate(0.294 -0.197)"/><path class="a" d="M0,0H53.11q0,26.132,0,52.264H0V0M45.984,37.8c0,.111,0,.222,0,.334.254,0,.509,0,.762,0,0,.693,0,1.387,0,2.081h.416q0-1.04,0-2.08h.764c0-.111,0-.221,0-.332-.648,0-1.3,0-1.943,0m2.428,0q0,1.206,0,2.412h.415c0-.659,0-1.317,0-1.976.278.653.529,1.317.794,1.975h.269c.267-.661.522-1.326.8-1.983,0,.661,0,1.323,0,1.984.138,0,.276,0,.414,0,.005-.8,0-1.608,0-2.412-.21,0-.421,0-.631,0-.234.6-.473,1.207-.71,1.81-.239-.6-.482-1.207-.721-1.811h-.635M6.3,40.375a3.516,3.516,0,0,0-2.69,1.337,4.028,4.028,0,0,0-.737,2.454,4.212,4.212,0,0,0,.592,2.343,3.231,3.231,0,0,0,1.536,1.266,4.27,4.27,0,0,0,2.411.2,3.388,3.388,0,0,0,1.928-1.111,3.665,3.665,0,0,0,.792-1.813,5.224,5.224,0,0,0-.147-2.293,3.3,3.3,0,0,0-1.256-1.741,3.906,3.906,0,0,0-2.43-.637M13.378,41.4q0-.423,0-.845c-.619,0-1.237,0-1.856,0q0,3.644,0,7.287c.663,0,1.326,0,1.989,0,0-1.613,0-3.226,0-4.838a1.008,1.008,0,0,1,.523-.521,3.905,3.905,0,0,1,1.632-.262q0-.9,0-1.807a2.8,2.8,0,0,0-2.295.982m4.869-.784a3.281,3.281,0,0,0-1.684,1.215c.439.252.882.5,1.325.744a2.243,2.243,0,0,1,1.537-.823,1.483,1.483,0,0,1,1.256.329c.218.246.155.59.163.888a10.947,10.947,0,0,0-2.979.675A2.931,2.931,0,0,0,16.5,44.693a2.258,2.258,0,0,0-.191,1.876,1.9,1.9,0,0,0,1.034,1.155,3.176,3.176,0,0,0,1.81.15,4.449,4.449,0,0,0,1.682-.656l.17.631h1.741c-.021-1.685-.008-3.37-.01-5.055a2.046,2.046,0,0,0-.378-1.422,2.68,2.68,0,0,0-1.754-.9,5.382,5.382,0,0,0-2.354.147m9.688-.156a5.054,5.054,0,0,0-1.872.927c-.057-.285-.123-.569-.174-.855q-.813.109-1.626.221,0,3.541,0,7.081h1.945V42.619a3.2,3.2,0,0,1,1.591-.792,1.037,1.037,0,0,1,.886.222,1.436,1.436,0,0,1,.265.921q0,2.434,0,4.868c.652,0,1.3,0,1.956,0V42.66a3.114,3.114,0,0,0-.178-1.021,1.755,1.755,0,0,0-.92-1.01,3.2,3.2,0,0,0-1.874-.165m5.083,1.061a4.45,4.45,0,0,0-.786,2.775,4.028,4.028,0,0,0,.78,2.518,2.783,2.783,0,0,0,1.89,1,2.7,2.7,0,0,0,1.578-.238,2.19,2.19,0,0,0,.76-.8c.015.307,0,.614.008.92a1.769,1.769,0,0,1-.359,1.164,1.408,1.408,0,0,1-1.045.386,2.089,2.089,0,0,1-1.167-.227.791.791,0,0,1-.309-.484l-1.93.306A2.053,2.053,0,0,0,33.5,50.223a4.761,4.761,0,0,0,2.734.415,3.494,3.494,0,0,0,2.216-.893,2.891,2.891,0,0,0,.683-1.994V40.537c-.552,0-1.1-.008-1.655.006-.043.268-.1.536-.144.8a1.585,1.585,0,0,0-.862-.732,3.475,3.475,0,0,0-1.491-.2,2.742,2.742,0,0,0-1.966,1.113m8.136-.055a3.884,3.884,0,0,0-.836,2.256,4.958,4.958,0,0,0,.436,2.6,2.923,2.923,0,0,0,1.521,1.388,4.717,4.717,0,0,0,2.679.148,3.2,3.2,0,0,0,2.116-1.463q-.719-.388-1.436-.783a2.27,2.27,0,0,1-.813.751,2.117,2.117,0,0,1-1.241.155,1.434,1.434,0,0,1-1-.616,2.618,2.618,0,0,1-.349-1.417h4.914a5.084,5.084,0,0,0-.2-1.913,2.991,2.991,0,0,0-1.233-1.667,3.9,3.9,0,0,0-2.534-.475A3.116,3.116,0,0,0,41.154,41.469Zm0,0" transform="translate(0.223 0.484)"/><path class="a" d="M301.616,303.28a1.378,1.378,0,0,1,.942-.425,1.522,1.522,0,0,1,1.247.433,1.663,1.663,0,0,1,.372,1.1c-1,0-1.991,0-2.986,0A1.834,1.834,0,0,1,301.616,303.28Zm0,0" transform="translate(-258.712 -260.664)"/><path class="a" d="M244.821,303.345a1.454,1.454,0,0,1,1.281.395,2.226,2.226,0,0,1,.569,1.451,5.718,5.718,0,0,1-.063,1.149,2.028,2.028,0,0,1-.5,1.1,1.415,1.415,0,0,1-1.032.38,1.261,1.261,0,0,1-.96-.357,2.065,2.065,0,0,1-.486-1.242,5.949,5.949,0,0,1,0-1.355,2.112,2.112,0,0,1,.45-1.1A1.274,1.274,0,0,1,244.821,303.345Zm0,0" transform="translate(-209.195 -261.071)"/><path class="a" d="M35.771,305.021a1.734,1.734,0,0,1,1.377.328,1.946,1.946,0,0,1,.6,1.177,4.153,4.153,0,0,1-.02,1.481,1.844,1.844,0,0,1-.645,1.128,1.821,1.821,0,0,1-1.425.25,1.432,1.432,0,0,1-.943-.671,3.09,3.09,0,0,1-.341-1.641,2.713,2.713,0,0,1,.4-1.452A1.441,1.441,0,0,1,35.771,305.021Zm0,0" transform="translate(-29.324 -262.515)"/><path class="a" d="M130.032,320.95a6.863,6.863,0,0,1,1.745-.4c0,.568,0,1.137,0,1.705a2.738,2.738,0,0,1-1.809.768.826.826,0,0,1-.61-.253,1.047,1.047,0,0,1-.11-1.22A1.6,1.6,0,0,1,130.032,320.95Zm0,0" transform="translate(-110.768 -275.927)"/><path class="b" d="M53.11,0h.045V52.308H0v-.044H53.109Q53.111,26.132,53.11,0Zm0,0" transform="translate(0.223 0.484)"/><path class="c" d="M327.746,274.531c.648,0,1.3,0,1.943,0,0,.111,0,.221,0,.332h-.764q0,1.04,0,2.08h-.416c0-.694,0-1.387,0-2.081-.254,0-.509,0-.762,0C327.743,274.753,327.744,274.642,327.746,274.531Zm0,0" transform="translate(-281.539 -236.244)"/><path class="c" d="M345.055,274.535h.635c.239.6.482,1.207.721,1.811.237-.6.476-1.205.71-1.809.21,0,.42,0,.631,0,0,.8,0,1.608,0,2.412-.138,0-.276,0-.414,0,0-.662,0-1.323,0-1.984-.275.657-.53,1.323-.8,1.983h-.269c-.265-.658-.516-1.322-.794-1.975-.009.659,0,1.317,0,1.976h-.415Q345.053,275.741,345.055,274.535Zm0,0" transform="translate(-296.421 -236.248)"/><path class="c" d="M23.932,293.172a3.906,3.906,0,0,1,2.43.637,3.3,3.3,0,0,1,1.256,1.741,5.224,5.224,0,0,1,.147,2.293,3.665,3.665,0,0,1-.792,1.813,3.388,3.388,0,0,1-1.928,1.111,4.269,4.269,0,0,1-2.411-.2,3.231,3.231,0,0,1-1.536-1.266,4.212,4.212,0,0,1-.592-2.343,4.028,4.028,0,0,1,.737-2.454,3.516,3.516,0,0,1,2.69-1.337m-.08,1.647a1.442,1.442,0,0,0-1,.6,2.714,2.714,0,0,0-.4,1.452,3.09,3.09,0,0,0,.341,1.641,1.432,1.432,0,0,0,.943.671,1.821,1.821,0,0,0,1.425-.25A1.844,1.844,0,0,0,25.8,297.8a4.154,4.154,0,0,0,.02-1.481,1.947,1.947,0,0,0-.6-1.177A1.734,1.734,0,0,0,23.852,294.819Zm0,0" transform="translate(-17.405 -252.313)"/><path class="c" d="M83.981,294.476a2.8,2.8,0,0,1,2.295-.982q0,.9,0,1.807a3.9,3.9,0,0,0-1.632.262,1.008,1.008,0,0,0-.523.521c-.008,1.612,0,3.225,0,4.838-.663,0-1.326,0-1.989,0q0-3.644,0-7.287c.619-.005,1.237,0,1.856,0Q83.983,294.053,83.981,294.476Zm0,0" transform="translate(-70.38 -252.589)"/><path class="c" d="M117.445,293.664a5.383,5.383,0,0,1,2.354-.147,2.68,2.68,0,0,1,1.754.9,2.046,2.046,0,0,1,.378,1.422c0,1.685-.011,3.37.01,5.055H120.2l-.17-.631a4.451,4.451,0,0,1-1.682.656,3.177,3.177,0,0,1-1.81-.15,1.9,1.9,0,0,1-1.034-1.155,2.258,2.258,0,0,1,.191-1.876,2.931,2.931,0,0,1,1.367-1.046,10.947,10.947,0,0,1,2.979-.675c-.008-.3.055-.642-.163-.888a1.483,1.483,0,0,0-1.256-.329,2.243,2.243,0,0,0-1.537.823c-.442-.246-.886-.492-1.325-.744a3.281,3.281,0,0,1,1.684-1.215m.795,3.919a1.6,1.6,0,0,0-.782.6,1.047,1.047,0,0,0,.11,1.22.826.826,0,0,0,.61.253,2.739,2.739,0,0,0,1.809-.768c0-.568,0-1.137,0-1.705A6.868,6.868,0,0,0,118.24,297.583Zm0,0" transform="translate(-98.975 -252.56)"/><path class="c" d="M176.6,293.432a3.2,3.2,0,0,1,1.874.165,1.755,1.755,0,0,1,.92,1.01,3.113,3.113,0,0,1,.178,1.021v5.178q-.978,0-1.956,0,0-2.434,0-4.868a1.436,1.436,0,0,0-.265-.922,1.037,1.037,0,0,0-.886-.222,3.2,3.2,0,0,0-1.591.792v5.219h-1.945q0-3.54,0-7.081.813-.112,1.626-.221c.052.286.117.57.174.855A5.054,5.054,0,0,1,176.6,293.432Zm0,0" transform="translate(-148.442 -252.485)"/><path class="c" d="M230.517,294.533a2.742,2.742,0,0,1,1.966-1.113,3.473,3.473,0,0,1,1.491.2,1.585,1.585,0,0,1,.862.732c.048-.268.1-.536.144-.8.551-.014,1.1,0,1.655-.006v7.213a2.89,2.89,0,0,1-.683,1.994,3.494,3.494,0,0,1-2.216.893,4.761,4.761,0,0,1-2.734-.415,2.053,2.053,0,0,1-1.065-1.373l1.93-.306a.791.791,0,0,0,.309.484,2.09,2.09,0,0,0,1.167.227,1.408,1.408,0,0,0,1.045-.386,1.769,1.769,0,0,0,.359-1.164c0-.307.008-.614-.008-.92a2.189,2.189,0,0,1-.76.8,2.7,2.7,0,0,1-1.578.238,2.782,2.782,0,0,1-1.89-1,4.028,4.028,0,0,1-.78-2.518,4.45,4.45,0,0,1,.786-2.775m2.385.266a1.274,1.274,0,0,0-.736.421,2.113,2.113,0,0,0-.45,1.1,5.96,5.96,0,0,0,0,1.355,2.065,2.065,0,0,0,.486,1.242,1.261,1.261,0,0,0,.96.357,1.415,1.415,0,0,0,1.032-.38,2.027,2.027,0,0,0,.5-1.1,5.714,5.714,0,0,0,.063-1.149,2.227,2.227,0,0,0-.569-1.451A1.455,1.455,0,0,0,232.9,294.8Zm0,0" transform="translate(-197.276 -252.525)"/><path class="c" d="M288.108,294.442a3.116,3.116,0,0,1,2.026-1.038,3.9,3.9,0,0,1,2.534.475,2.991,2.991,0,0,1,1.233,1.667,5.085,5.085,0,0,1,.2,1.913h-4.914a2.618,2.618,0,0,0,.349,1.417,1.435,1.435,0,0,0,1,.616,2.117,2.117,0,0,0,1.241-.155,2.272,2.272,0,0,0,.813-.751q.716.394,1.436.783a3.2,3.2,0,0,1-2.116,1.463,4.717,4.717,0,0,1-2.679-.148,2.922,2.922,0,0,1-1.521-1.388,4.958,4.958,0,0,1-.436-2.6,3.884,3.884,0,0,1,.836-2.257m1.527.664a1.833,1.833,0,0,0-.425,1.1c1,0,1.99,0,2.986,0a1.664,1.664,0,0,0-.372-1.1,1.522,1.522,0,0,0-1.247-.433A1.377,1.377,0,0,0,289.635,295.106Zm0,0" transform="translate(-246.731 -252.489)"/></g></svg>