<svg xmlns="http://www.w3.org/2000/svg" width="110.713" height="111.005" viewBox="0 0 110.713 111.005"><defs><style>.a{fill:#f60;}.b{fill:#fed9bf;}.c{fill:#fff;}</style></defs><path class="a" d="M0,0H110.619q0,55.455,0,110.91-55.308,0-110.618,0V0M95.777,80.223c0,.235-.006.472,0,.708.529,0,1.059,0,1.588,0,0,1.471,0,2.943,0,4.415q.434,0,.866,0,0-2.207,0-4.414c.53,0,1.062,0,1.591,0,0-.235,0-.469,0-.7-1.349,0-2.7,0-4.048,0m5.057,0q-.005,2.56,0,5.12h.864c.006-1.4-.009-2.8.009-4.194.579,1.386,1.1,2.794,1.654,4.19h.559c.557-1.4,1.088-2.814,1.66-4.209.01,1.4,0,2.807.006,4.211.287,0,.574,0,.862,0,.011-1.707,0-3.413,0-5.12-.438,0-.877,0-1.314,0-.487,1.282-.985,2.56-1.479,3.84-.5-1.282-1-2.56-1.5-3.842-.442,0-.884,0-1.323,0m-87.7,5.457a7.277,7.277,0,0,0-5.6,2.838,8.663,8.663,0,0,0-1.534,5.207A9.071,9.071,0,0,0,7.228,98.7a6.76,6.76,0,0,0,3.2,2.687,8.738,8.738,0,0,0,5.022.414,7.029,7.029,0,0,0,4.016-2.358,7.851,7.851,0,0,0,1.649-3.848,11.287,11.287,0,0,0-.307-4.866,7,7,0,0,0-2.616-3.694,8.021,8.021,0,0,0-5.061-1.353m14.734,2.184q0-.9,0-1.793c-1.289,0-2.577-.007-3.866,0q.01,7.732,0,15.464c1.381.006,2.762,0,4.144,0,.007-3.422-.008-6.845.008-10.266a2.119,2.119,0,0,1,1.09-1.106,8,8,0,0,1,3.4-.556q0-1.918,0-3.834a5.781,5.781,0,0,0-4.779,2.083M38.006,86.2A6.842,6.842,0,0,0,34.5,88.778c.914.535,1.838,1.056,2.759,1.579a4.648,4.648,0,0,1,3.2-1.747,3.048,3.048,0,0,1,2.616.7c.454.522.322,1.251.339,1.885a22.444,22.444,0,0,0-6.2,1.433,6.12,6.12,0,0,0-2.847,2.22,4.872,4.872,0,0,0-.4,3.981,4,4,0,0,0,2.153,2.452,6.5,6.5,0,0,0,3.77.317,9.167,9.167,0,0,0,3.5-1.392c.118.447.235.892.354,1.339q1.813,0,3.626,0c-.044-3.575-.016-7.152-.02-10.728a4.4,4.4,0,0,0-.788-3.017,5.547,5.547,0,0,0-3.654-1.91,11.01,11.01,0,0,0-4.9.312m20.178-.332a10.45,10.45,0,0,0-3.9,1.968c-.119-.6-.256-1.208-.363-1.814q-1.693.231-3.388.469,0,7.515,0,15.028,2.026,0,4.051,0V90.444a6.626,6.626,0,0,1,3.314-1.68,2.132,2.132,0,0,1,1.846.47,3.089,3.089,0,0,1,.553,1.956q0,5.166,0,10.33c1.358,0,2.717,0,4.075,0V90.531A6.719,6.719,0,0,0,64,88.363a3.7,3.7,0,0,0-1.916-2.144,6.542,6.542,0,0,0-3.9-.35M68.771,88.12a9.574,9.574,0,0,0-1.637,5.89,8.66,8.66,0,0,0,1.624,5.343,5.765,5.765,0,0,0,3.936,2.129,5.541,5.541,0,0,0,3.287-.506,4.611,4.611,0,0,0,1.582-1.692c.032.65.009,1.3.016,1.953a3.8,3.8,0,0,1-.747,2.469,2.9,2.9,0,0,1-2.176.819,4.283,4.283,0,0,1-2.431-.482,1.682,1.682,0,0,1-.644-1.026l-4.019.648a4.346,4.346,0,0,0,2.219,2.913,9.753,9.753,0,0,0,5.695.88,7.207,7.207,0,0,0,4.615-1.9,6.208,6.208,0,0,0,1.422-4.232V86.025c-1.149.007-2.3-.017-3.447.013-.089.57-.2,1.137-.3,1.707a3.319,3.319,0,0,0-1.795-1.553,7.115,7.115,0,0,0-3.106-.435,5.689,5.689,0,0,0-4.095,2.363M85.717,88a8.336,8.336,0,0,0-1.742,4.789,10.7,10.7,0,0,0,.908,5.508,6.131,6.131,0,0,0,3.169,2.946,9.652,9.652,0,0,0,5.581.315,6.662,6.662,0,0,0,4.407-3.1q-1.5-.824-2.991-1.661a4.764,4.764,0,0,1-1.694,1.595,4.335,4.335,0,0,1-2.586.33,2.981,2.981,0,0,1-2.09-1.307,5.639,5.639,0,0,1-.727-3.008q5.116,0,10.236,0a10.984,10.984,0,0,0-.406-4.059,6.339,6.339,0,0,0-2.567-3.538A8,8,0,0,0,89.936,85.8,6.45,6.45,0,0,0,85.717,88Zm0,0"/><path class="a" d="M302.076,303.764a2.846,2.846,0,0,1,1.962-.9,3.134,3.134,0,0,1,2.6.92,3.573,3.573,0,0,1,.775,2.324c-2.073,0-4.146,0-6.219,0A3.933,3.933,0,0,1,302.076,303.764Zm0,0" transform="translate(-213.178 -214.352)"/><path class="a" d="M246.149,303.371a2.994,2.994,0,0,1,2.669.838,4.776,4.776,0,0,1,1.186,3.08,12.35,12.35,0,0,1-.131,2.438,4.339,4.339,0,0,1-1.042,2.342,2.916,2.916,0,0,1-2.15.807,2.6,2.6,0,0,1-2-.758,4.429,4.429,0,0,1-1.012-2.636,12.867,12.867,0,0,1,.01-2.875,4.529,4.529,0,0,1,.937-2.342A2.642,2.642,0,0,1,246.149,303.371Zm0,0" transform="translate(-172.411 -214.686)"/><path class="a" d="M37.29,305.047a3.562,3.562,0,0,1,2.869.7,4.159,4.159,0,0,1,1.24,2.5,8.977,8.977,0,0,1-.041,3.144,3.931,3.931,0,0,1-1.342,2.395,3.736,3.736,0,0,1-2.969.531,2.985,2.985,0,0,1-1.963-1.423,6.661,6.661,0,0,1-.71-3.482,5.84,5.84,0,0,1,.836-3.082A2.994,2.994,0,0,1,37.29,305.047Zm0,0" transform="translate(-24.326 -215.872)"/><path class="a" d="M131.038,321.4a14.077,14.077,0,0,1,3.634-.847c0,1.205,0,2.412,0,3.619a5.652,5.652,0,0,1-3.767,1.629,1.7,1.7,0,0,1-1.271-.536,2.254,2.254,0,0,1-.229-2.59A3.333,3.333,0,0,1,131.038,321.4Zm0,0" transform="translate(-91.377 -226.88)"/><path class="b" d="M110.619,0h.094V111.005H0v-.094q55.308,0,110.618,0Q110.622,55.455,110.619,0Zm0,0"/><path class="c" d="M327.748,274.531c1.349,0,2.7,0,4.048,0,0,.235,0,.469,0,.7-.53,0-1.061,0-1.591,0q0,2.207,0,4.414-.433,0-.866,0c0-1.473,0-2.944,0-4.415-.529,0-1.059,0-1.588,0C327.742,275,327.743,274.766,327.748,274.531Zm0,0" transform="translate(-231.971 -194.308)"/><path class="c" d="M345.057,274.535c.439,0,.881,0,1.323,0,.5,1.282,1,2.56,1.5,3.842.494-1.28.992-2.558,1.48-3.84.437,0,.875,0,1.314,0,0,1.707.006,3.413,0,5.12-.288,0-.575,0-.862,0,0-1.4,0-2.808-.006-4.211-.572,1.395-1.1,2.807-1.66,4.209h-.559c-.553-1.4-1.075-2.8-1.654-4.19-.018,1.4,0,2.8-.009,4.194h-.864Q345.051,277.095,345.057,274.535Zm0,0" transform="translate(-244.223 -194.311)"/><path class="c" d="M27.643,293.179a8.022,8.022,0,0,1,5.061,1.353,7,7,0,0,1,2.616,3.694,11.287,11.287,0,0,1,.307,4.866,7.851,7.851,0,0,1-1.649,3.848,7.03,7.03,0,0,1-4.016,2.358,8.738,8.738,0,0,1-5.022-.414,6.76,6.76,0,0,1-3.2-2.687,9.071,9.071,0,0,1-1.234-4.972,8.663,8.663,0,0,1,1.534-5.207,7.277,7.277,0,0,1,5.6-2.838m-.167,3.494a2.994,2.994,0,0,0-2.082,1.275,5.84,5.84,0,0,0-.836,3.082,6.661,6.661,0,0,0,.71,3.482,2.985,2.985,0,0,0,1.963,1.423A3.736,3.736,0,0,0,30.2,305.4a3.931,3.931,0,0,0,1.342-2.395,8.977,8.977,0,0,0,.041-3.144,4.159,4.159,0,0,0-1.24-2.5A3.562,3.562,0,0,0,27.476,296.673Zm0,0" transform="translate(-14.513 -207.498)"/><path class="c" d="M85.991,295.589a5.781,5.781,0,0,1,4.779-2.083q0,1.916,0,3.834a8,8,0,0,0-3.4.556A2.119,2.119,0,0,0,86.28,299c-.016,3.421,0,6.844-.008,10.267-1.381,0-2.762,0-4.144,0q0-7.732,0-15.464c1.289-.012,2.577,0,3.866,0Q85.995,294.691,85.991,295.589Zm0,0" transform="translate(-58.127 -207.724)"/><path class="c" d="M119.674,293.9a11.01,11.01,0,0,1,4.9-.311,5.547,5.547,0,0,1,3.654,1.91,4.4,4.4,0,0,1,.788,3.017c0,3.575-.024,7.153.02,10.728q-1.813,0-3.626,0c-.119-.447-.236-.892-.354-1.339a9.167,9.167,0,0,1-3.5,1.392,6.5,6.5,0,0,1-3.77-.317,4,4,0,0,1-2.153-2.452,4.872,4.872,0,0,1,.4-3.981,6.12,6.12,0,0,1,2.847-2.22,22.444,22.444,0,0,1,6.2-1.433c-.017-.634.115-1.363-.339-1.885a3.048,3.048,0,0,0-2.616-.7,4.648,4.648,0,0,0-3.2,1.747c-.921-.523-1.844-1.043-2.759-1.579a6.842,6.842,0,0,1,3.508-2.578m1.655,8.317a3.333,3.333,0,0,0-1.629,1.274,2.254,2.254,0,0,0,.229,2.59,1.7,1.7,0,0,0,1.271.536,5.652,5.652,0,0,0,3.767-1.629c-.006-1.207,0-2.413,0-3.619A14.08,14.08,0,0,0,121.329,302.218Zm0,0" transform="translate(-81.669 -207.7)"/><path class="c" d="M180.577,293.507a6.542,6.542,0,0,1,3.9.35A3.7,3.7,0,0,1,186.4,296a6.719,6.719,0,0,1,.37,2.168v10.989c-1.358,0-2.717,0-4.075,0q0-5.166,0-10.33a3.089,3.089,0,0,0-.553-1.956,2.132,2.132,0,0,0-1.846-.47,6.627,6.627,0,0,0-3.314,1.68v11.076q-2.027,0-4.051,0,0-7.513,0-15.028,1.693-.238,3.388-.469c.108.606.244,1.209.363,1.814A10.45,10.45,0,0,1,180.577,293.507Zm0,0" transform="translate(-122.394 -207.638)"/><path class="c" d="M231.369,295.791a5.689,5.689,0,0,1,4.095-2.363,7.115,7.115,0,0,1,3.106.435,3.32,3.32,0,0,1,1.795,1.553c.1-.57.211-1.137.3-1.707,1.148-.03,2.3-.006,3.447-.013V309a6.208,6.208,0,0,1-1.422,4.232,7.207,7.207,0,0,1-4.615,1.9,9.754,9.754,0,0,1-5.695-.88,4.346,4.346,0,0,1-2.219-2.913l4.019-.648a1.682,1.682,0,0,0,.644,1.026,4.284,4.284,0,0,0,2.431.482,2.9,2.9,0,0,0,2.176-.819,3.8,3.8,0,0,0,.747-2.469c-.007-.65.016-1.3-.016-1.953a4.611,4.611,0,0,1-1.582,1.692,5.541,5.541,0,0,1-3.287.506,5.765,5.765,0,0,1-3.936-2.129,8.66,8.66,0,0,1-1.624-5.343,9.574,9.574,0,0,1,1.637-5.89m4.968.565a2.642,2.642,0,0,0-1.533.894,4.529,4.529,0,0,0-.937,2.342,12.87,12.87,0,0,0-.01,2.875,4.429,4.429,0,0,0,1.012,2.636,2.6,2.6,0,0,0,2,.758,2.916,2.916,0,0,0,2.15-.807,4.34,4.34,0,0,0,1.042-2.342,12.353,12.353,0,0,0,.131-2.438,4.776,4.776,0,0,0-1.186-3.08A2.994,2.994,0,0,0,236.337,296.356Zm0,0" transform="translate(-162.598 -207.672)"/><path class="c" d="M289.031,295.645a6.45,6.45,0,0,1,4.219-2.2,8,8,0,0,1,5.278,1.008,6.339,6.339,0,0,1,2.567,3.538,10.983,10.983,0,0,1,.406,4.059q-5.12,0-10.236,0a5.639,5.639,0,0,0,.727,3.008,2.981,2.981,0,0,0,2.09,1.307,4.335,4.335,0,0,0,2.586-.33,4.764,4.764,0,0,0,1.694-1.595q1.491.835,2.991,1.661a6.662,6.662,0,0,1-4.407,3.1,9.652,9.652,0,0,1-5.581-.315,6.131,6.131,0,0,1-3.169-2.946,10.7,10.7,0,0,1-.908-5.508,8.336,8.336,0,0,1,1.742-4.789m3.181,1.409a3.933,3.933,0,0,0-.885,2.339c2.073,0,4.146,0,6.219,0a3.573,3.573,0,0,0-.775-2.324,3.135,3.135,0,0,0-2.6-.92A2.846,2.846,0,0,0,292.212,297.054Zm0,0" transform="translate(-203.314 -207.642)"/></svg>