<svg xmlns="http://www.w3.org/2000/svg" xmlns:xlink="http://www.w3.org/1999/xlink" width="154" height="154" viewBox="0 0 154 154"><defs><style>.a{fill:url(#a);}.b{fill:#60daa8;}.c{fill:#00ce8e;}.d{fill:#fffcdc;}</style><linearGradient id="a" x1="1" x2="0.078" y2="0.973" gradientUnits="objectBoundingBox"><stop offset="0" stop-color="#f6f6f6"/><stop offset="1" stop-color="#f3f3f3"/></linearGradient></defs><g transform="translate(-794 -222)"><g transform="translate(794 222)"><circle class="a" cx="77" cy="77" r="77"/><g transform="translate(25.001 25)"><path class="b" d="M108.133,57.817A50.317,50.317,0,1,1,57.817,7.5,50.317,50.317,0,0,1,108.133,57.817Zm0,0" transform="translate(-5.982 -5.981)"/><path class="c" d="M54.189,103.192a26.085,26.085,0,0,0,5.992-9.371L53.489,88.14s-8.223-15.8-8.172-15.757c-18.359-21.349-4.5-50.3-4.342-50.621A50.328,50.328,0,0,0,52.226,119.2a12.578,12.578,0,0,1,1.963-16.008Zm0,0" transform="translate(-5.982 -17.355)"/><path class="d" d="M118.533,201.664a7.3,7.3,0,0,1-4.472-1.527l-23.72-18.3a7.328,7.328,0,0,1,8.951-11.6l18.351,14.156,25.32-28.022a7.328,7.328,0,0,1,10.875,9.826l-29.865,33.052a7.313,7.313,0,0,1-5.44,2.416Zm0,0" transform="translate(-69.774 -122.783)"/><path d="M51.835,103.67A51.835,51.835,0,0,1,0,51.835,51.3,51.3,0,0,1,11.164,19.7a1.519,1.519,0,1,1,2.382,1.885,48.8,48.8,0,0,0,38.289,79.053A48.8,48.8,0,0,0,86.34,17.33,48.8,48.8,0,0,0,17.7,16.965a1.519,1.519,0,0,1-2.125-2.17A51.835,51.835,0,0,1,88.488,88.489a51.5,51.5,0,0,1-36.653,15.182Zm0,0" transform="translate(0)"/><path d="M112.549,197.2a8.77,8.77,0,0,1-5.4-1.842l-23.72-18.3a8.846,8.846,0,1,1,10.807-14.009l17.239,13.3,24.378-26.979a8.846,8.846,0,1,1,13.127,11.862l-4.046,4.478a1.518,1.518,0,0,1-2.253-2.036l4.046-4.478a5.8,5.8,0,0,0-.416-8.205c-3.388-3.018-7.164-.736-8.2.415l-25.32,28.022a1.518,1.518,0,0,1-2.054.184L92.38,165.46c-1.228-.948-5.567-2.366-8.147,1.051s-.177,7.2,1.051,8.148l23.72,18.3a5.754,5.754,0,0,0,3.546,1.209,5.823,5.823,0,0,0,4.313-1.914l21.633-23.942a1.518,1.518,0,0,1,2.253,2.036l-21.633,23.943a8.867,8.867,0,0,1-6.566,2.915Zm0,0" transform="translate(-63.789 -116.803)"/></g></g></g></svg>